<?xml version="1.0" encoding="UTF-8"?>
<svg id="Instagram-Icon" xmlns="http://www.w3.org/2000/svg" viewBox="0 0 1500.77 1054.86">
  <g id="bC7GQS">
    <g>
      <path d="m223.51,527.5c0-78.49-.44-156.99.14-235.48.46-61.51,19.84-117.29,55.92-166.86C328.31,58.19,394.03,17.93,475.73,4.05c11.65-1.98,23.42-3.24,35.31-3.24,159.18.03,318.36-.64,477.54.32,68.21.41,128.65,25.15,180.81,68.76,57.02,47.69,91.68,108.69,104.08,182.13,2.71,16.03,3.54,32.19,3.53,48.45-.08,152.82,1.32,305.66-.54,458.46-1.38,113.87-54.94,199.5-152.49,257.19-44.66,26.41-93.77,38.2-145.82,38.13-152.82-.2-305.64-.03-458.46-.09-143.59-.06-269.03-106.9-292.36-248.69-2.86-17.38-3.94-34.79-3.92-52.36.07-75.2.03-150.41.03-225.61h.07Zm526.46,423.72v-.07c77.83,0,155.67.44,233.5-.16,51.01-.39,94.98-19.66,131.28-55.12,39.72-38.79,59.4-86.4,59.27-142.17-.18-79.15-.03-158.3-.05-237.45-.02-74.54.47-149.09-.31-223.63-.52-49.76-19.64-92.69-53.81-128.51-39.84-41.77-89.51-61.05-146.87-61.08-147.34-.07-294.67-.03-442.01,0-12.05,0-24.13.36-36.04,2.32-74.49,12.21-126.09,53.6-155.41,122.86-10.31,24.37-13.72,50.24-13.74,76.52-.08,139.44-.05,278.88-.02,418.33,0,14.68-.11,29.35.78,44.04,2.83,46.97,20.24,87.82,52.29,121.92,38.89,41.38,87.13,62.25,144.18,62.22,75.64-.05,151.28-.01,226.92-.01Z"/>
      <path d="m474.98,527.39c.04-151.66,123.95-275.31,275.74-275.15,151.54.16,274.86,124.17,274.69,276.24-.17,150.92-124.43,274.33-276.1,274.2-150.71-.13-274.37-124.22-274.33-275.29Zm103.11-.19c-.07,94.87,76.61,172.23,170.86,172.37,95.85.14,173.27-76.33,173.35-171.22.09-95.81-76.29-172.83-171.55-172.99-95.61-.17-172.59,76.45-172.66,171.84Z"/>
      <path d="m1093.95,249.8c-.06,34.96-28.8,63.56-63.81,63.48-35.12-.07-63.29-28.47-63.29-63.81,0-35.15,28.23-63.68,63.3-63.99,34.94-.3,63.87,28.85,63.81,64.31Z"/>
    </g>
  </g>
</svg>