<?xml version="1.0" encoding="UTF-8"?>
<svg id="Linkedin-Icon" xmlns="http://www.w3.org/2000/svg" viewBox="0 0 1500.77 1054.86">
  <g id="tixZg3">
    <path d="m750.08,1054.24c-157.52,0-315.05.02-472.57-.02-27.05,0-46.23-14.71-52.83-40.08-1.1-4.21-1.33-8.47-1.33-12.78,0-315.8-.01-631.61.03-947.41,0-30.05,22.56-52.67,52.67-53.24,1.52-.03,3.03-.02,4.55-.02,313.02,0,626.05.03,939.07-.09,18.92,0,34.74,5.81,46.5,20.95,7.19,9.26,10.77,19.82,10.74,31.7-.12,37.42-.05,74.84-.05,112.26,0,278.13,0,556.26,0,834.39,0,26.75-15.41,47.17-39.88,53.17-5.74,1.41-11.55,1.16-17.35,1.16-156.51.02-313.02.02-469.54.01Zm-100.03-408.59c0,76.11.1,152.22-.15,228.33-.02,7.69,2.37,9.98,9.98,9.92,39.7-.32,79.4-.14,119.09-.16,10.33,0,10.37-.04,10.37-10.68,0-78.39.06-156.77-.05-235.16-.02-12.19.84-24.25,3.1-36.2,7.54-39.9,30.69-68.99,73.95-73.86,43.99-4.95,76.23,12.36,88.79,56.99,4.42,15.7,6.14,31.71,6.14,47.97-.02,80.41.09,160.82-.16,241.22-.02,7.74,2.37,9.92,9.96,9.86,41.47-.32,82.94-.14,124.4-.15q10.83,0,10.85-10.92c0-91.79-.07-183.57.07-275.36.03-18.48-.41-36.9-3.04-55.21-5.31-37.08-17.61-71.21-43.88-98.86-26.76-28.16-60.42-42.42-98.63-46.71-67.99-7.62-124.01,13.27-165.27,69.37-1.15,1.57-1.98,4.37-4.18,3.85-2.86-.66-1.96-3.74-1.97-5.84-.09-15.17-.41-30.35.08-45.51.24-7.45-2.44-9.43-9.6-9.37-39.7.29-79.4.13-119.09.14q-10.72,0-10.75,11.03c0,75.1,0,150.19,0,225.29Zm-96.06,1.52c0-75.85,0-151.69,0-227.54,0-10.21-.06-10.29-10.06-10.3-41.72-.03-83.43-.02-125.15,0-10,0-10.14.13-10.14,10.18-.01,151.44-.02,302.88,0,454.32,0,9.55.34,9.89,9.76,9.9,41.72.03,83.43.02,125.15,0,10.43,0,10.45-.03,10.45-10.54,0-75.34,0-150.68,0-226.02Zm-74.24-302.06c47.87.15,86.48-38.11,86.6-85.82.12-48.33-38.13-88.08-84.76-88.08-48.35,0-87.5,38.85-87.69,87.01-.19,47.59,38.49,86.74,85.85,86.89Z"/>
  </g>
</svg>