<?xml version="1.0" encoding="UTF-8"?>
<svg id="Resume-Icon" xmlns="http://www.w3.org/2000/svg" viewBox="0 0 1500.77 1054.86">
  <path d="m994.06.61H371.3c-29.7,0-53.77,24.07-53.77,53.77v946.1c0,29.7,24.07,53.77,53.77,53.77h758.17c29.7,0,53.77-24.07,53.77-53.77V189.79c0-104.49-84.7-189.19-189.19-189.19Zm-243.67,177.47c57.24,0,103.64,46.4,103.64,103.64s-46.4,103.64-103.64,103.64-103.64-46.4-103.64-103.64,46.4-103.64,103.64-103.64Zm-163.9,311.96c0-54.71,26.83-103.12,68.02-132.89,22.64,27.88,57.18,45.7,95.89,45.7s73.25-17.82,95.89-45.7c41.19,29.77,68.02,78.18,68.02,132.89v123.93h-327.81v-123.93Zm491.41,456.44H422.88v-39.56h655.02v39.56Zm0-110.83H422.88v-39.56h655.02v39.56Zm0-110.83H422.88v-39.56h655.02v39.56Z"/>
</svg>