<?xml version="1.0" encoding="UTF-8"?>
<svg id="Twitter-Icon" xmlns="http://www.w3.org/2000/svg" viewBox="0 0 1500.77 1054.86">
  <g id="_3CsoDL" data-name="3CsoDL">
    <path d="m223.66,527.48c0-136.71.64-273.42-.31-410.12-.38-54.65,38.9-108.76,101.9-116.31,3.66-.44,7.4-.43,11.1-.43,276.15-.02,552.29-.04,828.44,0,60.83,0,112.51,50.91,112.54,111.57.15,276.73.14,553.46,0,830.2-.03,55.36-43.45,103.78-98.38,110.85-5.64.73-11.25,1.01-16.9,1.01-274.39,0-548.78,0-823.17-.01-59.14,0-107.21-42.24-114.71-100.86-.66-5.19-.47-10.51-.47-15.77-.02-136.71-.02-273.42-.02-410.12Zm936.29-317.37c-3.31-.04-4.61,1.29-6.12,2.11-30.09,16.57-61.79,28.82-95.43,36-4.07.87-6.88.3-9.82-2.88-4.22-4.56-8.89-8.79-13.76-12.65-46.59-36.89-98.9-46.85-155.33-29.63-55.81,17.03-95.03,53.1-114.52,108.89-9.95,28.49-10.51,57.72-4.48,87.11.98,4.76.13,6.21-4.97,5.91-9.15-.53-18.25-1.39-27.35-2.45-52.17-6.05-101.97-20.4-149.44-42.82-56.18-26.53-105.67-62.29-147.97-107.87-6.23-6.71-12.31-13.58-18.25-20.54-2.58-3.02-4.49-3.5-6.45.35-.8,1.56-1.69,3.08-2.44,4.66-13.41,28.2-19.72,57.72-17.01,89.05,4.04,46.72,23.54,85.55,58.83,116.42,4.75,4.15,9.82,7.94,15.78,12.74-7.19.9-12.89-.4-18.54-1.17-18.5-2.55-36.13-8.1-52.72-16.7-4.41-2.29-5.99-1.52-5.51,3.47.61,6.4.53,12.91,1.69,19.2,13.67,73.85,56.31,121.5,128.88,141.95,1.53.43,3.55.12,4.44,1.98-.47,1.2-1.5,1.28-2.42,1.49-21.68,5.04-43.53,6.34-65.6,3-5.73-.87-6.4-.21-4.77,4.62,20.82,61.72,84.36,109.05,149.76,111.6,1.87.07,4.61-.76,5.35,1.22.97,2.59-2.17,3.29-3.7,4.44-41.83,31.47-88.48,52.27-139.82,62.37-25.88,5.09-52.01,7.59-78.45,6.15-8.29-.45-16.6-.36-26.48-1.74,1.93,1.55,2.45,2.06,3.05,2.43,22.45,13.83,45.72,26.07,70.14,36.1,64.56,26.53,131.61,39.06,201.47,36.71,25.57-.86,50.94-3.02,76.13-7.43,93.08-16.32,173.99-56.96,242.48-122.01,32.28-30.66,59.48-65.51,81.95-103.94,47.96-82.03,72.02-170.48,70.37-265.65-.12-6.78,1.92-11.02,7.34-15.09,28.45-21.34,52.66-46.87,73.12-75.95.79-1.12,2.48-2.14,1-4.17-29.52,12.12-59.88,21.02-91.97,23.82,33.63-22.68,58.06-52.13,71.55-91.13Z"/>
  </g>
</svg>