<?xml version="1.0" encoding="UTF-8"?>
<svg id="Youtube-Icon" xmlns="http://www.w3.org/2000/svg" viewBox="0 0 1500.77 1054.86">
  <g id="reYl91">
    <path d="m757.3,1052.77c-58.88,0-117.8,1.35-176.62-.37-61.18-1.79-122.41-3.1-183.55-6.92-43.93-2.74-87.89-4.92-131.65-9.59-42.31-4.52-85.24-7.48-124.8-24.89-60.49-26.63-99.61-71.92-112.17-137.57-9.25-48.4-14.31-97.45-19.58-146.46C-1.39,631.03-1.25,534.84,1.85,438.71c2.62-81.26,8.35-162.48,24.99-242.41,7.46-35.84,18.05-70.37,41.27-99.91,30.18-38.4,69.86-60.29,117.21-69.15,32.47-6.08,65.35-9.15,98.24-12.05,62.93-5.54,126.07-7.02,189.11-10.53,8.12-.45,16.27-.28,24.4-.52C629.14.21,761.24-.19,893.34,1.71c62.18.89,124.37,2.99,186.49,5.92,52.54,2.48,105.09,5.57,157.44,10.99,30.93,3.2,61.95,6.5,92.17,14.08,75.05,18.81,124.39,64.97,145.06,140.04,11.1,40.29,14.78,81.87,18.24,123.36,4.09,49.13,5.34,98.38,6.77,147.65,1.02,34.94,1.6,69.87,1.06,104.77-1.74,111.11-9.6,221.75-29.5,331.26-7.95,43.72-30.79,78.85-64.51,107.23-29.89,25.16-65.01,37.88-103.23,43.2-41.72,5.81-83.62,9.39-125.66,12.12-72.11,4.68-144.31,6.58-216.51,9.02-67.96,2.3-135.91,1.12-203.85,1.42Zm-153.18-308.33c5.32.36,8.15-2.57,11.39-4.43,117.55-67.34,235.08-134.71,352.56-202.17,4.81-2.76,12.84-3.98,12.94-9.96.12-6.88-8.23-8.35-13.4-11.31-115.43-66.22-230.91-132.35-346.42-198.43-4.88-2.79-10.09-8.84-15.24-6.28-6.41,3.18-3.18,11.24-3.18,17.1-.16,133.1-.14,266.2-.07,399.3,0,5.18-.99,10.51,1.43,16.17Z"/>
  </g>
</svg>